<?xml version="1.0" encoding="utf-8"?>
<svg id="Layer_1" xmlns="http://www.w3.org/2000/svg" version="1.1" viewBox="0 0 180 33" xmlns:bx="https://boxy-svg.com" width="180px" height="33px" preserveAspectRatio="xMinYMid">
  <defs>
    <style>
      .st0, .st1 {
        fill: none;
      }

      .st2 {
        fill: #82cbae;
      }

      .st1 {
        stroke: #231f20;
        stroke-width: .99px;
      }

      .st3 {
        fill: #20252e;
      }

      .st4 {
        clip-path: url(#clippath);
      }
    </style>
    <clipPath id="clippath-1">
      <rect class="st0" x="189.13" y="474.31" width="169.53" height="31.24"/>
    </clipPath>
    <clipPath id="clippath-2">
      <rect class="st0" x="66" y="73.25" width="587" height="573.51"/>
    </clipPath>
    <bx:export>
      <bx:file format="svg" path="dessa-system-login-combined.svg"/>
    </bx:export>
  </defs>
  <g id="svg-2" transform="matrix(1, 0, 0, 1, -187.417725, -473.187042)" style="">
    <g class="st4" style="clip-path: url(&quot;#clippath-1&quot;);" transform="">
      <path class="st7" d="M226.41,474.9h10.53c10.48,0,15.95,5.97,15.95,14.9s-5.47,14.9-15.95,14.9h-10.53v-29.8ZM236.94,497.86c5.97,0,8.47-3.1,8.47-8.07s-2.51-8.07-8.47-8.07h-3.14v16.13h3.14Z" style="fill: rgb(22, 51, 90);"/>
      <polygon class="st7" points="256.16 474.9 278.16 474.9 278.16 481.73 263.54 481.73 263.54 486.61 275.52 486.61 275.52 492.53 263.54 492.53 263.54 497.86 278.16 497.86 278.16 504.69 256.16 504.69 256.16 474.89 256.16 474.9" style="fill: rgb(22, 51, 90);"/>
      <path class="st7" d="M281.22,495.9h7.2c0,1.87,1.14,3.05,4.01,3.05s4.01-1.18,4.01-3.05-2.28-2.41-5.01-2.91c-4.24-.78-9.66-1.78-9.66-9.02,0-5.65,4.28-9.66,10.71-9.66s10.48,3.78,10.71,9.43h-6.93c-.04-1.73-1.14-3.1-3.69-3.1s-3.69,1.5-3.69,3.05c0,1.96,2.28,2.41,5.06,2.91,4.28.78,9.71,1.78,9.71,9.02,0,5.92-4.47,9.66-11.21,9.66s-11.07-3.6-11.21-9.39h0Z" style="fill: rgb(22, 51, 90);"/>
      <path class="st7" d="M306.28,495.9h7.2c0,1.87,1.14,3.05,4.01,3.05s4.01-1.18,4.01-3.05-2.28-2.41-5.01-2.91c-4.24-.78-9.66-1.78-9.66-9.02,0-5.65,4.28-9.66,10.71-9.66s10.48,3.78,10.71,9.43h-6.93c-.04-1.73-1.14-3.1-3.69-3.1s-3.69,1.5-3.69,3.05c0,1.96,2.28,2.41,5.06,2.91,4.28.78,9.71,1.78,9.71,9.02,0,5.92-4.46,9.66-11.21,9.66s-11.07-3.6-11.21-9.39h0Z" style="fill: rgb(22, 51, 90);"/>
      <path class="st7" d="M332.41,487.38c0-8.11,4.6-13.07,13.08-13.07s13.17,4.96,13.17,13.07v17.31h-7.38v-8.47h-11.67v8.47h-7.2v-17.31ZM351.27,489.84v-2.46c0-4.1-1.78-6.24-5.83-6.24s-5.83,2.14-5.83,6.24v2.46h11.67,0Z" style="fill: rgb(22, 51, 90);"/>
      <path class="st7" d="M190.26,491.67l8.69-5,4.11-2.37-6.06-3.49-7.24,7.24c-.86.85-.86,2.27,0,3.12l.49.49ZM209.12,478.85v12.57l7.96-4.61-7.96-7.96ZM204.97,484.27l3.16,1.84v-8.22l-2.53-2.53c-.86-.85-2.27-.85-3.13,0l-4.77,4.77,7.27,4.14ZM190.96,492.4l8,7.96v-12.57l-8,4.61ZM218.34,488.02l-.49-.49-8.69,5-4.11,2.37,6.05,3.49,7.24-7.24c.86-.85.86-2.27,0-3.12M204.02,495.49l-4.11-2.37v8.22l2.53,2.53c.86.85,2.27.85,3.13,0l4.77-4.77-6.32-3.62Z" style="fill: rgb(22, 51, 90);"/>
    </g>
    <g class="st6" style="clip-path: url(&quot;#clippath-2&quot;);" transform="">
      <path class="st3" d="M363.21,476.27c1.36,0,2.36,1.09,2.36,2.45s-1,2.45-2.36,2.45-2.37-1.09-2.37-2.45,1.02-2.45,2.37-2.45M363.21,475.53c-1.81,0-3.28,1.41-3.28,3.16s1.47,3.2,3.28,3.2,3.26-1.41,3.26-3.2-1.43-3.16-3.26-3.16M362.78,477.75c.09,0,.21-.02.36-.02.38,0,.59.15.59.42s-.26.4-.62.4h-.32v-.79ZM362.76,479.13h.32c.34,0,.51.13.57.45.08.32.13.58.23.7h.92c-.06-.11-.13-.28-.23-.74-.09-.41-.26-.66-.58-.77v-.04c.39-.11.68-.38.68-.7,0-.3-.13-.53-.34-.66-.21-.13-.49-.23-1.13-.23-.57,0-1.02.06-1.26.09v3.03h.83v-1.15Z" style="fill: rgb(1, 51, 51);"/>
    </g>
  </g>
</svg>